<svg xmlns="http://www.w3.org/2000/svg" viewBox="0 0 1200 640" role="img" aria-labelledby="title desc">
  <title id="title">Headlines illustration</title>
  <desc id="desc">A Tamil Nadu campaign and breaking headlines illustration with a metro, mic, and news bars.</desc>
  <defs>
    <linearGradient id="bg" x1="0" y1="0" x2="1" y2="1">
      <stop offset="0%" stop-color="#f59e0b"/>
      <stop offset="55%" stop-color="#0f172a"/>
      <stop offset="100%" stop-color="#1e293b"/>
    </linearGradient>
  </defs>
  <rect width="1200" height="640" rx="36" fill="url(#bg)"/>
  <rect x="56" y="56" width="1088" height="528" rx="28" fill="#0b1220" fill-opacity="0.56" stroke="#fde68a" stroke-opacity="0.18"/>
  <path d="M180 240h300v46H180z" fill="#f97316"/>
  <path d="M180 308h340v28H180z" fill="#f8fafc" fill-opacity="0.18"/>
  <path d="M180 356h316v28H180z" fill="#f8fafc" fill-opacity="0.14"/>
  <path d="M180 404h250v28H180z" fill="#f8fafc" fill-opacity="0.1"/>
  <rect x="160" y="216" width="440" height="244" rx="18" fill="#111827" fill-opacity="0.76" stroke="#f8fafc" stroke-opacity="0.14"/>

  <rect x="690" y="232" width="294" height="108" rx="24" fill="#111827" fill-opacity="0.9" stroke="#f8fafc" stroke-opacity="0.12"/>
  <rect x="712" y="254" width="122" height="64" rx="14" fill="#38bdf8" fill-opacity="0.85"/>
  <path d="M742 286h62" stroke="#f8fafc" stroke-width="8" stroke-linecap="round"/>
  <path d="M742 306h74" stroke="#f8fafc" stroke-opacity="0.82" stroke-width="8" stroke-linecap="round"/>
  <rect x="850" y="252" width="112" height="60" rx="16" fill="#f59e0b"/>
  <path d="M874 280h64" stroke="#f8fafc" stroke-width="8" stroke-linecap="round"/>
  <path d="M960 286l60-34" stroke="#f8fafc" stroke-opacity="0.92" stroke-width="14" stroke-linecap="round"/>
  <path d="M960 286l62 28" stroke="#f8fafc" stroke-opacity="0.92" stroke-width="14" stroke-linecap="round"/>

  <rect x="706" y="370" width="250" height="96" rx="22" fill="#38bdf8" fill-opacity="0.2" stroke="#f8fafc" stroke-opacity="0.12"/>
  <rect x="730" y="388" width="180" height="54" rx="16" fill="#111827" fill-opacity="0.95"/>
  <rect x="748" y="398" width="40" height="22" rx="6" fill="#38bdf8"/>
  <rect x="804" y="398" width="40" height="22" rx="6" fill="#38bdf8"/>
  <rect x="860" y="398" width="28" height="22" rx="6" fill="#f59e0b"/>
  <circle cx="748" cy="436" r="7" fill="#f8fafc"/>
  <circle cx="892" cy="436" r="7" fill="#f8fafc"/>
  <path d="M708 470h250" stroke="#f8fafc" stroke-opacity="0.26" stroke-width="10" stroke-linecap="round"/>
  <text x="762" y="423" fill="#f8fafc" font-size="16" font-family="Arial, sans-serif" font-weight="700">Chennai Metro</text>

  <path d="M706 410l52-88 52 88" fill="none" stroke="#f8fafc" stroke-opacity="0.9" stroke-width="12" stroke-linecap="round" stroke-linejoin="round"/>
  <rect x="750" y="380" width="60" height="72" rx="20" fill="#f97316"/>
  <path d="M782 364c24-22 60-24 92-6" fill="none" stroke="#f8fafc" stroke-opacity="0.75" stroke-width="10" stroke-linecap="round"/>

  <text x="94" y="142" fill="#f8fafc" font-size="48" font-family="Arial, sans-serif" font-weight="700">Headlines</text>
  <text x="94" y="188" fill="#cbd5e1" font-size="24" font-family="Arial, sans-serif">Tamil Nadu campaigns, breaking updates, and local news</text>
</svg>
